<?xml version="1.0" standalone="no"?>
<!DOCTYPE svg PUBLIC "-//W3C//DTD SVG 20010904//EN"
 "http://www.w3.org/TR/2001/REC-SVG-20010904/DTD/svg10.dtd">
<svg version="1.0" xmlns="http://www.w3.org/2000/svg"
 width="700.000000pt" height="700.000000pt" viewBox="0 0 700.000000 700.000000"
 preserveAspectRatio="xMidYMid meet">
<metadata>
Created by potrace 1.11, written by Peter Selinger 2001-2013
</metadata>
<g transform="translate(0.000000,700.000000) scale(0.100000,-0.100000)"
fill="#000000" stroke="none">
<path d="M3720 5250 c-81 -10 -210 -37 -249 -51 -23 -9 -22 -11 28 -51 61 -50
153 -163 187 -230 l24 -48 90 0 c72 0 90 -3 90 -14 0 -22 -37 -210 -76 -388
-39 -181 -42 -245 -17 -446 10 -80 17 -215 17 -325 1 -207 0 -205 57 -95 83
164 130 334 159 583 26 230 70 454 116 597 l15 46 62 -14 c65 -15 211 -61 238
-75 14 -7 9 -31 -42 -201 -109 -359 -169 -617 -169 -729 0 -89 -29 -235 -72
-367 -36 -109 -140 -336 -199 -433 l-21 -36 73 -187 73 -186 29 27 c46 44 144
197 197 307 105 219 167 446 205 755 43 344 90 534 176 704 38 78 93 157 108
157 10 0 127 -88 198 -148 l52 -43 -40 -65 c-149 -244 -262 -542 -324 -854
-74 -377 -166 -634 -301 -843 -44 -68 -180 -214 -217 -234 -18 -10 -18 -15 7
-138 14 -71 28 -131 31 -133 9 -10 142 88 226 165 118 109 200 202 280 321
121 180 176 316 244 597 89 368 243 725 359 834 l26 24 0 403 0 403 -42 29
c-72 49 -240 137 -354 185 -199 83 -440 149 -666 183 -124 18 -474 26 -578 14z"/>
<path d="M3205 5180 c-4 -6 0 -21 9 -34 8 -13 34 -86 56 -162 51 -169 79 -230
129 -282 49 -51 89 -62 113 -32 23 29 23 73 -2 151 -26 85 -87 176 -189 282
-81 84 -103 98 -116 77z"/>
<path d="M2946 5049 c-215 -31 -360 -225 -397 -533 l-12 -94 47 -54 c26 -29
67 -95 92 -147 75 -156 170 -261 236 -261 47 0 47 37 0 176 -23 67 -42 139
-42 161 0 48 -39 112 -117 194 l-55 57 55 35 c53 34 112 67 120 67 2 0 27 -48
55 -107 35 -73 64 -156 91 -258 55 -212 70 -237 111 -193 28 31 39 75 51 218
13 147 4 199 -61 338 -22 46 -40 88 -40 91 0 4 25 15 56 26 30 10 57 22 60 26
2 5 -6 34 -20 66 -13 32 -34 91 -46 131 l-22 72 -51 -1 c-29 -1 -78 -5 -111
-10z"/>
<path d="M2333 4076 l-61 -123 71 -6 c90 -8 130 -21 188 -64 72 -52 154 -85
224 -90 53 -5 63 -3 69 12 8 23 -21 54 -112 119 -38 27 -79 65 -92 83 -43 63
-189 193 -216 193 -5 0 -37 -56 -71 -124z"/>
<path d="M3370 4100 c-14 -26 -4 -60 55 -187 97 -208 109 -296 62 -442 -46
-142 -51 -368 -12 -556 17 -85 85 -265 142 -378 l34 -68 89 62 c50 34 90 67
90 73 0 31 -56 235 -107 387 -55 167 -57 178 -57 279 0 58 3 157 8 220 7 107
6 121 -18 205 -37 129 -127 303 -190 370 -55 59 -79 67 -96 35z"/>
<path d="M3096 3930 c-81 -25 -120 -125 -76 -198 53 -87 167 -95 229 -16 52
66 26 169 -51 204 -47 21 -59 23 -102 10z"/>
<path d="M2165 3723 c-16 -3 -34 -35 -76 -136 l-55 -132 185 -6 c191 -6 268
-16 381 -49 117 -35 162 -71 273 -215 248 -326 347 -516 397 -758 8 -39 16
-57 24 -54 7 3 48 11 92 17 43 7 83 16 87 20 4 4 -15 77 -43 164 -155 479
-352 794 -603 965 -76 51 -244 128 -332 150 -127 33 -265 47 -330 34z"/>
<path d="M1898 3168 l-46 -95 111 -7 c150 -8 271 -30 396 -72 165 -55 233 -95
342 -204 111 -110 191 -227 270 -395 30 -63 57 -115 62 -115 12 0 117 72 117
81 0 25 -249 409 -365 564 -208 277 -300 323 -660 332 l-180 5 -47 -94z"/>
<path d="M1749 2883 c-78 -136 -229 -471 -245 -542 -22 -100 -14 -203 26 -324
79 -235 212 -369 420 -424 84 -22 251 -22 343 0 157 39 257 120 427 347 51 69
113 149 138 178 l45 53 -28 29 c-30 31 -98 57 -220 83 -373 81 -391 92 -573
337 -208 280 -243 320 -282 320 -12 0 -30 -19 -51 -57z"/>
<path d="M5243 2701 c-201 -296 -329 -459 -413 -523 -87 -67 -274 -165 -445
-234 -66 -26 -121 -49 -123 -50 -6 -4 22 -264 29 -276 16 -25 579 180 719 262
96 56 213 146 288 222 l62 64 -2 350 -3 350 -112 -165z"/>
</g>
</svg>
