<?xml version="1.0" encoding="UTF-8"?>
<svg width="512px" height="512px" viewBox="0 0 512 512" version="1.1" xmlns="http://www.w3.org/2000/svg" xmlns:xlink="http://www.w3.org/1999/xlink">
    <!-- Generator: Sketch 61.2 (89653) - https://sketch.com -->
    <title>Zebra</title>
    <desc>Created with Sketch.</desc>
    <defs>
        <linearGradient x1="100%" y1="50%" x2="0%" y2="50%" id="linearGradient-1">
            <stop stop-color="#74EBD5" offset="0%"></stop>
            <stop stop-color="#9FACE6" offset="100%"></stop>
        </linearGradient>
    </defs>
    <g id="Zebra" stroke="none" stroke-width="1" fill="none" fill-rule="evenodd">
        <g id="Smooth-Corners" fill="#FFFFFF">
            <path d="M146.141456,-1.18085795e-14 L365.858544,1.57772181e-30 C416.675112,-9.33485213e-15 435.102427,5.29105984 453.680205,15.2265641 C472.257983,25.1620684 486.837932,39.7420171 496.773436,58.3197949 C506.70894,76.8975727 512,95.3248882 512,146.141456 L512,365.858544 C512,416.675112 506.70894,435.102427 496.773436,453.680205 C486.837932,472.257983 472.257983,486.837932 453.680205,496.773436 C435.102427,506.70894 416.675112,512 365.858544,512 L146.141456,512 C95.3248882,512 76.8975727,506.70894 58.3197949,496.773436 C39.7420171,486.837932 25.1620684,472.257983 15.2265641,453.680205 C5.29105984,435.102427 -1.64915158e-15,416.675112 -7.87238634e-15,365.858544 L-7.88860905e-31,146.141456 C-6.22323475e-15,95.3248882 5.29105984,76.8975727 15.2265641,58.3197949 C25.1620684,39.7420171 39.7420171,25.1620684 58.3197949,15.2265641 C76.8975727,5.29105984 95.3248882,-2.47372738e-15 146.141456,-1.18085795e-14 Z"></path>
        </g>
        <g id="zebra" transform="translate(104.000000, 110.000000)">
            <path d="M186.264,186.2 C186.264,186.2 197.256,199.28 208.128,266.576 C209.272,273.64 209.736,280.776 209.864,288 L288,288 L288,59.584 C252.904,31.8 204.808,26.072 146.576,45.52 C146.576,45.52 103.312,21.52 97.4,15.608 C91.648,9.848 82.544,3.16 87.52,18.408 C90.432,27.304 93.632,37.392 106.384,57.304 C78.896,73.592 70.28,94.744 37.92,164.032 C13.216,216.96 0.64,234.152 7.496,254.376 C16.536,281.072 50.024,299.136 78.248,278.544 C93.6,267.344 96.216,247.24 128.048,228.76 C157.272,228.24 186.264,215.928 186.264,186.2 Z" id="Path" fill="#E1E8ED"></path>
            <path d="M288,48.096 C221.32,2.408 114.832,11.784 127.272,49.52 C204.08,34.624 254.16,61.848 288,106.864 L288,48.096 Z" id="Path" fill="#292F33"></path>
            <path d="M157.304,46.104 C134.28,47.968 99.064,60.224 81.9439997,79.2 C81.9439997,79.2 81.904,36.664 111.456,32.928 C160.832,26.696 157.928,35.832 157.928,35.832 L157.304,46.104 Z" id="Path" fill="#292F33"></path>
            <path d="M130.856,8.448 C135.32,17.688 162.904,22.768 171.304,56.68 C179.712,90.6 146.232,80.288 136.456,63.52 C125.568,44.848 121.832,30.224 121.52,18.088 C121.352,11.68 121.832,-10.216 130.856,8.448 L130.856,8.448 Z" id="Path" fill="#E1E8ED"></path>
            <path d="M132.768,22.704 C141.592,30.448 152.352,42.48 153.968,54.344 C155.584,66.208 144.968,62.248 140.08,51.368 C135.184,40.496 134.056,29.136 131.008,25.504 C127.968,21.872 132.768,22.704 132.768,22.704 L132.768,22.704 Z" id="Path" fill="#66757F"></path>
            <path d="M135.52,124.2 C135.52,129.698547 131.062547,134.156 125.564,134.156 C120.065453,134.156 115.608,129.698547 115.608,124.2 C115.608,118.701453 120.065453,114.244 125.564,114.244 C131.062547,114.244 135.52,118.701453 135.52,124.2 Z" id="Path" fill="#292F33"></path>
            <path d="M82.832,79.392 C82.568,79.256 82.232,79.28 81.944,79.2 C69.6,95.464 58.584,120.016 38.024,164.032 C27.176,187.256 18.664,203.6 13.096,216.336 C26.12,218.144 39.376,204.8 44.656,190.168 C50.04,175.24 70.376,144.952 84.072,127.944 C97.768,110.928 96.56,86.792 82.832,79.392 L82.832,79.392 Z" id="Path" fill="#E1E8ED"></path>
            <path d="M225.504,50.496 C225.504,50.496 207.136,106.072 207.088,122.072 C207,152.496 185.592,184.48 185.592,184.48 L196.328,211.856 C196.328,211.856 222.328,187.536 227.832,130.032 C232.4,82.248 248.36,68.696 248.36,68.696 L225.504,50.496 L225.504,50.496 Z M272.496,75.504 C272.496,75.504 248.448,104.584 240,152 C228.496,216.496 201.144,229.968 201.144,229.968 L205,249.496 C205,249.496 247.248,225.048 258.056,176.576 C271,118.496 288,106.864 288,106.864 L272.496,75.504 Z M26,187.504 C31.504,181.792 50.136,217.968 62.24,226.576 C74.952,235.616 105.992,234.056 107.848,243.872 C94.504,257.504 85.744,278.056 69.128,283.776 C52.504,289.504 23.448,289.192 11.224,262.6 C-1,236 8,225 13,213.504 C18,202.008 24.664,190 26,187.504 Z" id="Shape" fill="#292F33" fill-rule="nonzero"></path>
            <path d="M33.776,239.336 C33.776,246.384 29.52,252.088 24.28,252.088 C19.04,252.088 14.784,246.384 14.784,239.336 C14.784,232.28 19.04,226.568 24.28,226.568 C29.52,226.568 33.776,232.28 33.776,239.336 Z" id="Path" fill="#66757F"></path>
            <path d="M207.632,263.56 C207.632,263.56 244.496,251 256.496,236.496 C268.496,221.992 288,192 288,192 L288,243 C288,243 278.496,256 258.496,266.504 C245.808,273.16 209.76,284.512 209.76,284.512 L207.632,263.56 Z M200.08,48.64 C200.08,48.64 192.504,72 190.504,96 C188.504,120 181.504,135 175,145.504 C177.496,111.504 169.496,98.504 174,80.504 C178.504,62.504 180.96,45.944 180.96,45.944 C180.96,45.944 186,43 191,43.504 C196,44.008 200.08,48.64 200.08,48.64 Z M38.024,164.032 C38.024,164.032 69.496,161 84,171 C98.504,181 126.656,229.584 126.656,229.584 L117.584,235.608 C117.584,235.608 104.008,198.496 79.504,187 C55,175.504 31.504,177.496 31.504,177.496 L38.024,164.032 Z" id="Shape" fill="#292F33" fill-rule="nonzero"></path>
            <path d="M44.84,149.424 C44.84,149.424 88.968,146.56 100.504,161.496 C122.504,189.992 131.152,201.576 136.08,228.288 L150.36,225.832 C144.008,202.496 129.504,161 103.008,143.496 C76.512,125.992 53.008,129.992 53.008,129.992 L44.84,149.424 L44.84,149.424 Z M143,101.504 C138,107.008 159,128 152,145.504 C145,163.008 149,187.504 153,198.504 C157,209.504 163.08,221.216 163.08,221.216 L176.056,212.048 C176.056,212.048 174,200 168,182.504 C162,165.008 162.496,164.504 165,147 C167.504,129.496 148,96 143,101.504 Z M120.36,54.632 C120.36,54.632 129.496,71 129,79 C128.504,87 128.504,100.504 124,103.496 C119.496,106.488 117.504,87.496 114.496,79 C111.488,70.504 105.984,60.936 105.984,60.936 C105.984,60.936 117.736,49.512 120.36,54.632 Z M92.008,68.952 C92.008,68.952 106.352,80.136 105.848,88.136 C105.344,96.136 115,108.992 110.496,111.992 C105.992,114.992 94.992,101.992 92,93.496 C89.008,85 81.944,79.2 81.944,79.2 C81.944,79.2 89.376,63.832 92.008,68.952 L92.008,68.952 Z M71.504,94.496 C71.504,94.496 83.68,102.344 87.008,108.496 C90.328,114.64 103.888,119.592 102.512,123.496 C101.128,127.4 86.696,122.712 81.008,117.496 C75.32,112.28 62.248,112.864 62.248,112.864 L71.504,94.496 Z" id="Shape" fill="#292F33" fill-rule="nonzero"></path>
            <rect id="Rectangle" fill-opacity="0" fill="#000000" x="0" y="0" width="288" height="288"></rect>
        </g>
    </g>
</svg>